<svg id="ico_download" xmlns="http://www.w3.org/2000/svg" width="15" height="15" viewBox="0 0 15 15">
    <defs>
        <style>
            .cls-2{fill:gray}
        </style>
    </defs>
    <path id="bg" style="fill:none" d="M0 0h15v15H0z"/>
    <path id="패스_1764" data-name="패스 1764" class="cls-2" d="M67.783 8.631V.876a1.291 1.291 0 0 1 .029-.336.745.745 0 0 1 1.461.169c.006.123 0 .246 0 .369V8.676c.074-.068.119-.107.161-.149q1.136-1.138 2.27-2.278a.753.753 0 0 1 1.168.949 1.608 1.608 0 0 1-.143.155l-3.591 3.591a.766.766 0 0 1-1.221 0L64.28 7.306a.753.753 0 1 1 1.067-1.059q.927.925 1.849 1.854c.181.182.358.369.536.554l.051-.024" transform="translate(-61.025 .379)"/>
    <path id="패스_1765" data-name="패스 1765" class="cls-2" d="M7.5 273.394H.8a.749.749 0 0 1-.752-1.009.736.736 0 0 1 .668-.49c.058-.006.117 0 .176 0h13.217a1.3 1.3 0 0 1 .381.046.736.736 0 0 1 .5.829.752.752 0 0 1-.688.623H7.5" transform="translate(.002 -258.773)"/>
</svg>
