<svg xmlns="http://www.w3.org/2000/svg" width="30" height="30" viewBox="0 0 30 30">
    <path data-name="패스 1767" d="M0 3.653c.056-.259.254-.352.48-.419.442-.13.879-.273 1.323-.4.161-.044.226-.106.223-.285-.012-.625-.006-1.25 0-1.875 0-.514.2-.695.708-.676a11.119 11.119 0 0 1 6.345 2.2 10.846 10.846 0 0 1 2.2 2.174c.053.07.11.138.161.2.345-.394.666-.794 1.022-1.16A11.036 11.036 0 0 1 18.47.194 16.662 16.662 0 0 1 20.309 0c.387-.029.594.186.6.579v2.246c.423.127.841.25 1.257.377.135.041.267.092.4.131a.39.39 0 0 1 .3.446c-.008 2.24 0 4.48 0 6.721 0 2.315-.01 4.629.01 6.944a.636.636 0 0 1-.819.61 16 16 0 0 0-2.081-.48 12.11 12.11 0 0 0-7.9 1.532c-.09.052-.179.106-.268.161a.64.64 0 0 1-.73 0A12.234 12.234 0 0 0 .836 17.915a.719.719 0 0 1-.085.028c-.41.073-.545.137-.751-.265zM19.873 1c-.279.035-.531.06-.78.1a10.354 10.354 0 0 0-7.039 4.368.522.522 0 0 0-.088.285q-.007 5.739 0 11.479a1.8 1.8 0 0 0 .02.182c.239-.255.449-.5.676-.72a10.95 10.95 0 0 1 7-3.216c.192-.015.226-.084.226-.257q-.006-6 0-11.992c0-.065-.006-.131-.011-.23m-16.823.01v12.4a11.115 11.115 0 0 1 7.881 3.991c0-.086.009-.129.009-.172V5.752a.568.568 0 0 0-.1-.3A10.25 10.25 0 0 0 5.4 1.454a10.033 10.033 0 0 0-2.352-.44M.99 16.878a13.78 13.78 0 0 1 8.387.376.7.7 0 0 0-.162-.161 9.736 9.736 0 0 0-6.486-2.629C2.157 14.448 2 14.3 2 13.733V3.811c-.276.083-.519.171-.769.227-.183.041-.244.119-.243.313q.01 6.14 0 12.28v.244M20.88 3.816v9.951c0 .5-.171.679-.658.689a9.76 9.76 0 0 0-6.007 2.178c-.238.189-.459.4-.688.6a14.015 14.015 0 0 1 8.351-.363V4.112l-1-.3" transform="translate(3.564 5.311)" style="fill:#263238;stroke:#263238;stroke-width:.5px"/>
</svg>
