<svg xmlns="http://www.w3.org/2000/svg" width="30" height="30" viewBox="0 0 30 30">
    <path style="fill:none" d="M0 0h30v30H0z"/>
    <path data-name="패스 1766" d="M5.618 11.552A7.078 7.078 0 0 1 15.669 1.67a6.872 6.872 0 0 1 2.481 4.762 6.968 6.968 0 0 1-1.525 5.075c.668.508 1.368.96 1.974 1.515a10.8 10.8 0 0 1 3.583 7.266c.027.314.041.63.04.945a1 1 0 0 1-.972 1 1.012 1.012 0 0 1-1.032-.91 18.523 18.523 0 0 0-.276-2.224 8.822 8.822 0 0 0-4.842-6.032.336.336 0 0 0-.273.017 6.989 6.989 0 0 1-7.435 0 .333.333 0 0 0-.272-.008 8.891 8.891 0 0 0-4.984 6.693c-.089.51-.085 1.036-.136 1.554a.942.942 0 0 1-.622.823.96.96 0 0 1-1.039-.175A.964.964 0 0 1 0 21.2a11.045 11.045 0 0 1 5.465-9.552c.047-.028.093-.059.154-.1m5.5.566a5.05 5.05 0 1 0-5.056-5.03 5.047 5.047 0 0 0 5.051 5.034" transform="translate(3.889 3.885)" style="fill:#263238"/>
</svg>
