<svg id="ico_graph" xmlns="http://www.w3.org/2000/svg" width="30" height="30" viewBox="0 0 30 30">
    <defs>
        <style>
            .cls-2{fill:#263238;stroke:#263238;stroke-width:.4px}
        </style>
    </defs>
    <g id="그룹_872" data-name="그룹 872" transform="translate(-267.988 151.012)">
        <path id="패스_1777" data-name="패스 1777" class="cls-2" d="M85.013 47.8a.9.9 0 0 1-.632.641.831.831 0 0 1-1.033-.822c-.011-.321 0-.644 0-.965V43.443a7.9 7.9 0 0 0-.216.2l-5.155 5.131a.861.861 0 0 1-1.406 0c-.566-.566-1.13-1.134-1.732-1.739a2.028 2.028 0 0 1-.166.22q-3.26 3.263-6.522 6.525a.95.95 0 0 1-.645.341.827.827 0 0 1-.7-1.338 1.8 1.8 0 0 1 .175-.189l7.176-7.176a.867.867 0 0 1 1.408 0c.566.566 1.131 1.133 1.7 1.707l4.836-4.9h-4.132a.826.826 0 0 1-.792-1.156.857.857 0 0 1 .869-.508h2.274c1.2 0 2.4.012 3.6-.006a1.012 1.012 0 0 1 1.088.638z" transform="translate(208.961 -184.373)"/>
        <path id="패스_1778" data-name="패스 1778" class="cls-2" d="M1.67 18.31H20.936a1.608 1.608 0 0 1 .4.037.824.824 0 0 1-.073 1.6 1.85 1.85 0 0 1-.32.023H1.011C.317 19.976 0 19.662 0 18.969v-18A.881.881 0 0 1 .46.093a.819.819 0 0 1 1.172.528 1.715 1.715 0 0 1 .036.4v17.285" transform="translate(272 -146)"/>
    </g>
</svg>
