<svg id="ico_content" xmlns="http://www.w3.org/2000/svg" width="30" height="30" viewBox="0 0 30 30">
    <defs>
        <style>
            .cls-2{fill:#263238;stroke:#263238;stroke-width:.3px}
        </style>
    </defs>
    <g id="그룹_869" data-name="그룹 869" transform="translate(-238.775 35.27)">
        <path id="패스_1768" data-name="패스 1768" class="cls-2" d="M0 3.3c.038-.159.074-.319.115-.478A3.738 3.738 0 0 1 3.711.005q9.055-.009 18.11 0a3.722 3.722 0 0 1 3.72 3.714q.014 6.012 0 12.023a3.723 3.723 0 0 1-3.719 3.714q-9.055.011-18.11 0A3.731 3.731 0 0 1 .047 16.3.834.834 0 0 0 0 16.167V3.3m12.779-1.8H3.9a2.251 2.251 0 0 0-2.4 2.4v11.647a2.253 2.253 0 0 0 2.414 2.415h17.73a2.252 2.252 0 0 0 2.4-2.4V3.914A2.254 2.254 0 0 0 21.633 1.5h-8.854" transform="translate(241 -30)"/>
        <path id="패스_1769" data-name="패스 1769" class="cls-2" d="M146.677 83.136V79.52a.77.77 0 0 1 1.257-.694q2.871 1.8 5.746 3.594a.769.769 0 0 1 0 1.432q-2.873 1.8-5.746 3.594a.771.771 0 0 1-1.258-.694c.007-1.205 0-2.411 0-3.616m1.516-2.38v4.761L152 83.136l-3.807-2.38" transform="translate(104.101 -103.405)"/>
    </g>
</svg>
