<svg id="ico_upload" xmlns="http://www.w3.org/2000/svg" width="60" height="60" viewBox="0 0 60 60">
    <defs>
        <style>
            .cls-2{fill:gray}
        </style>
    </defs>
    <path id="bg" style="fill:none" d="M0 0h60v60H0z"/>
    <path id="패스_7767" data-name="패스 7767" class="cls-2" d="M0 28.732V7.607a7.389 7.389 0 0 1 3.336-6.384A6.458 6.458 0 0 1 7.127 0Q18.61.036 30.094 0a1.274 1.274 0 0 1 .993.411q3.275 3.42 6.543 6.847 2.089 2.187 4.176 4.376 1.646 1.727 3.288 3.457a1.859 1.859 0 0 1 .548 1.349q-.011 16.69-.009 33.38a7.539 7.539 0 0 1-6.674 7.641 7.637 7.637 0 0 1-1.05.053H7.724a7.542 7.542 0 0 1-7.513-5.833 9.113 9.113 0 0 1-.2-1.973Q-.012 39.22 0 28.732m42.867-11.155h-.534c-2.418 0-4.836.011-7.254-.008a7.327 7.327 0 0 1-1.712-.178 6 6 0 0 1-4.693-6.021 949.676 949.676 0 0 1 0-8.269c0-.322-.081-.435-.419-.434Q18 2.681 7.734 2.676a4.831 4.831 0 0 0-2.957.93A4.9 4.9 0 0 0 2.765 7.8q.01 20.447 0 40.895v1.165a4.776 4.776 0 0 0 .969 2.94 4.914 4.914 0 0 0 4.144 1.958q9.228-.009 18.455 0h11.539a4.871 4.871 0 0 0 3.648-1.495 4.937 4.937 0 0 0 1.348-3.594q-.008-15.787 0-31.573zM31.574 4.94l-.1.049c-.011.108-.03.216-.03.324 0 2.015-.006 4.031 0 6.046a3.531 3.531 0 0 0 .124.963 3.317 3.317 0 0 0 3.352 2.483c1.84.013 3.68 0 5.52 0 .126 0 .253-.025.483-.05L31.574 4.94" transform="translate(7.18 1.242)"/>
    <path id="패스_7768" data-name="패스 7768" class="cls-2" d="M187.517 258.683v14.925a1.494 1.494 0 0 1-.66 1.383 1.361 1.361 0 0 1-2.074-.892 3.724 3.724 0 0 1-.035-.636v-14.206c0-.155-.019-.31-.038-.586-.309.324-.54.561-.766.8q-2.388 2.575-4.774 5.152a1.5 1.5 0 0 1-1.683.51 1.37 1.37 0 0 1-.5-2.252c1.006-1.1 2.028-2.184 3.044-3.274 1.639-1.759 3.273-3.523 4.927-5.268a2.211 2.211 0 0 1 .858-.567 1.318 1.318 0 0 1 1.412.482q2.531 2.7 5.047 5.412c.965 1.035 1.934 2.066 2.894 3.105a1.423 1.423 0 0 1 .274 1.783 1.35 1.35 0 0 1-2.209.2c-.808-.839-1.59-1.7-2.383-2.554l-3.068-3.3c-.05-.053-.113-.094-.261-.216" transform="translate(-156.137 -233.396)"/>
    <path id="패스_7769" data-name="패스 7769" class="cls-2" d="M145.754 603.2h-11.235a1.475 1.475 0 0 1-1.376-.668 1.356 1.356 0 0 1 .837-2.045 2.875 2.875 0 0 1 .6-.056h22.32a1.628 1.628 0 0 1 1.43.583 1.263 1.263 0 0 1 .16 1.347 1.321 1.321 0 0 1-1.16.829c-.162.011-.325.01-.488.01h-11.088" transform="translate(-115.758 -554.045)"/>
</svg>
