<svg xmlns="http://www.w3.org/2000/svg" width="30" height="30" viewBox="0 0 30 30">
    <path data-name="패스 1776" d="M11.847 17.117h-8.75a3.023 3.023 0 0 1-3.06-2.58A3.386 3.386 0 0 1 0 13.969V3.147A3.031 3.031 0 0 1 3.15 0H20.6a3.027 3.027 0 0 1 3.146 3.147v10.821a3.029 3.029 0 0 1-3.146 3.148h-8.75M1.658 4.565v.31c0 3.011.018 6.023-.011 9.034A1.482 1.482 0 0 0 3.2 15.47c5.781-.02 11.562-.01 17.344-.01a1.381 1.381 0 0 0 1.541-1.529V4.845c0-.089-.007-.177-.013-.295-.113.063-.188.1-.26.146Q17.81 7.092 13.8 9.488a3.521 3.521 0 0 1-3.824.018C7.938 8.3 5.9 7.085 3.866 5.874L1.658 4.565m20.377-1.883A1.252 1.252 0 0 0 22 2.54a1.394 1.394 0 0 0-1.438-.882H2.955a1.363 1.363 0 0 0-1.169.779c-.1.186-.071.291.126.407 2.919 1.72 5.839 3.439 8.744 5.183a2.11 2.11 0 0 0 2.376 0c2.7-1.619 5.411-3.215 8.118-4.82.3-.175.589-.352.885-.529" transform="translate(3.125 6.439)" style="fill:#263238"/>
</svg>
