<svg id="ico_board" xmlns="http://www.w3.org/2000/svg" width="30" height="30" viewBox="0 0 30 30">
    <defs>
        <style>
            .cls-2{fill:#263238;stroke:#263238;stroke-width:.3px}
        </style>
    </defs>
    <g id="그룹_870" data-name="그룹 870" transform="translate(-375.25 171.75)">
        <path id="패스_1770" data-name="패스 1770" class="cls-2" d="M1.716 0h13.4a.164.164 0 0 0 .038.022 1.985 1.985 0 0 1 1.676 2.157V9.433c.794-.8 1.536-1.543 2.282-2.287a1.313 1.313 0 0 1 1.935 0c.272.266.531.545.809.8a2.012 2.012 0 0 1 .642.971v.439a2.074 2.074 0 0 1-.641.972q-2.446 2.4-4.881 4.811a.459.459 0 0 0-.149.364q.008 2.46 0 4.921A1.976 1.976 0 0 1 14.76 22.5H2.085a2.318 2.318 0 0 1-.372-.021A1.971 1.971 0 0 1 0 20.437V5.829c0-1.281 0-2.563.005-3.844A1.891 1.891 0 0 1 .984.28 4.533 4.533 0 0 1 1.716 0m13.8 16.658-.047-.045a3.8 3.8 0 0 1-1.646 1.043c-.182.094-.37.174-.556.26-.689.321-1.376.646-2.068.96a.633.633 0 0 1-.922-.376.988.988 0 0 1 .071-.587c.524-1.159 1.066-2.31 1.611-3.459a1.712 1.712 0 0 1 .321-.463q1.537-1.554 3.09-3.092a.464.464 0 0 0 .152-.362q-.007-4.207 0-8.413c0-.561-.241-.805-.8-.805H2.129c-.571 0-.808.24-.808.817v18.232c0 .572.24.812.813.812h12.742a.648.648 0 0 0 .635-.633c.008-1.3 0-2.591 0-3.887m-3.248.241a1.533 1.533 0 0 0 .152-.046c.576-.268 1.153-.536 1.727-.809a.8.8 0 0 0 .208-.157l4.643-4.579a.7.7 0 0 1 .178-.108l-1.117-1.125a.536.536 0 0 0-.044.039l-4.75 4.751a.46.46 0 0 0-.1.117c-.293.621-.582 1.243-.9 1.917m8.856-7.761-1.03-1.031-.99.99 1.046 1.057.974-1.016" transform="translate(380 -168)"/>
        <path id="패스_1771" data-name="패스 1771" class="cls-2" d="M54.22 73.923h-4.851a.66.66 0 1 1-.006-1.317h9.747a.658.658 0 0 1 .657.921.67.67 0 0 1-.673.4H54.22" transform="translate(334.194 -236.342)"/>
        <path id="패스_1772" data-name="패스 1772" class="cls-2" d="M53.166 133.8h-3.8a.656.656 0 0 1-.64-.931.664.664 0 0 1 .657-.387h7.638a.645.645 0 0 1 .64.411.617.617 0 0 1-.126.692.694.694 0 0 1-.553.216h-3.819" transform="translate(334.193 -292.699)"/>
        <path id="패스_1773" data-name="패스 1773" class="cls-2" d="M52.2 192.37h2.7a.664.664 0 1 1 .006 1.318h-5.464a.662.662 0 1 1-.006-1.317h2.765" transform="translate(334.152 -349.077)"/>
    </g>
</svg>
