<svg id="ico_banner" xmlns="http://www.w3.org/2000/svg" width="30" height="30" viewBox="0 0 30 30">
    <defs>
        <style>
            .cls-2{fill:#263238;stroke:#263238;stroke-width:.6px}
        </style>
    </defs>
    <g id="그룹_871" data-name="그룹 871" transform="translate(-578.762 228.24)">
        <path id="패스_1774" data-name="패스 1774" class="cls-2" d="M1.975 0h17.567c.018.01.034.028.053.03a2.343 2.343 0 0 1 1.93 2.365c-.018 5.575-.007 11.149-.011 16.724a2.828 2.828 0 0 1-.063.645 2.257 2.257 0 0 1-2.271 1.753H2.141a2.266 2.266 0 0 1-1.589-.792A2.624 2.624 0 0 1 0 19.542V1.975a.494.494 0 0 0 .037-.094A2.265 2.265 0 0 1 .817.537 2.648 2.648 0 0 1 1.975 0m18.393 12.705.06-.036c0-.061.009-.122.009-.182V2.38a1.194 1.194 0 0 0-1.312-1.3H2.398a1.692 1.692 0 0 0-.416.039 1.2 1.2 0 0 0-.9 1.3v12.187c0 .073.007.146.012.256.088-.083.148-.137.206-.195l3.373-3.373a.582.582 0 0 1 .971 0q1.6 1.6 3.208 3.211a1.921 1.921 0 0 1 .16.223c.092-.112.141-.182.2-.241q2.993-3 5.987-5.989c.372-.372.63-.372 1 0q2.007 2 4.013 4.01a2.13 2.13 0 0 1 .156.2m-4.678-3.2c-.07.081-.121.148-.18.208l-6 6a.581.581 0 0 1-.969 0q-1.605-1.6-3.208-3.21a1.034 1.034 0 0 1-.124-.2c-.077.065-.1.081-.12.1q-1.954 1.953-3.9 3.91a.431.431 0 0 0-.1.277c-.007.847-.006 1.695 0 2.542a1.659 1.659 0 0 0 .037.4 1.2 1.2 0 0 0 1.291.908h16.7a1.739 1.739 0 0 0 .416-.037 1.182 1.182 0 0 0 .908-1.248v-4.685a.468.468 0 0 0-.158-.364q-1.854-1.845-3.7-3.7c-.287-.287-.572-.575-.892-.9" transform="translate(583 -224)"/>
        <path id="패스_1775" data-name="패스 1775" class="cls-2" d="M71.456 59.908a2.738 2.738 0 1 1 2.74 2.731 2.734 2.734 0 0 1-2.74-2.731m2.735 1.653a1.658 1.658 0 1 0-1.663-1.661 1.663 1.663 0 0 0 1.663 1.657" transform="translate(515.479 -278.02)"/>
    </g>
</svg>
