<svg id="logo_symbol_gnb" xmlns="http://www.w3.org/2000/svg" width="34" height="42.004" viewBox="0 0 34 42.004">
    <defs>
        <style>
            .cls-1{fill:#515256}
        </style>
    </defs>
    <path id="패스_1" data-name="패스 1" class="cls-1" d="M138.128 283.268h34v-42h-34zm4.232-9.261a29.267 29.267 0 0 1 .441-3.364 17.307 17.307 0 0 1 2.326-6.194 8.13 8.13 0 0 1 .966-1.136 10.717 10.717 0 0 1-2.028-.793.191.191 0 0 1-.075-.268.208.208 0 0 1 .278-.071c.621.15 1.424.371 2.436.576a11.089 11.089 0 0 1 2.046-1.344 14.824 14.824 0 0 1 5.385-1.371 31.17 31.17 0 0 1 7.059.493c.249.048.485.1.714.143a13.7 13.7 0 0 0 3.934-5.4 29.81 29.81 0 0 0 1.769-8.231.2.2 0 0 1 .408 0c.009.654-.044 1.834-.123 3.476a29.3 29.3 0 0 1-.441 3.364 17.307 17.307 0 0 1-2.326 6.194 8.139 8.139 0 0 1-.966 1.135 10.718 10.718 0 0 1 2.028.793.191.191 0 0 1 .075.268.209.209 0 0 1-.279.072c-.62-.151-1.424-.371-2.435-.576a11.1 11.1 0 0 1-2.046 1.344 14.823 14.823 0 0 1-5.385 1.371 31.13 31.13 0 0 1-7.059-.493c-.249-.049-.485-.1-.714-.144a13.689 13.689 0 0 0-3.934 5.4 29.807 29.807 0 0 0-1.769 8.23.2.2 0 0 1-.408 0c-.01-.651.043-1.832.123-3.474z" transform="translate(-138.128 -241.264)"/>
    <path id="패스_2" data-name="패스 2" class="cls-1" d="M171.079 296.927a15.161 15.161 0 0 0 7.389-1.9l.109-.074a28.133 28.133 0 0 0-4.082-.123 15.154 15.154 0 0 0-7.389 1.9c-.038.023-.072.049-.11.073a28.148 28.148 0 0 0 4.083.124z" transform="translate(-155.786 -274.876)"/>
</svg>
